<svg xmlns="http://www.w3.org/2000/svg" xmlns:xlink="http://www.w3.org/1999/xlink" version="1.1" width="264.696pt" height="87.7626pt" viewBox="0 0 264.696 87.7626">
<defs>
<clipPath id="clip_0">
<path transform="matrix(1,0,0,-1,0,87.7626)" d="M0 87.763H264.696V0H0Z"/>
</clipPath>
</defs>
<g id="layer_1" data-name="Layer">
<g clip-path="url(#clip_0)">
<path transform="matrix(1,0,0,-1,63.5569,27.915303)" d="M0 0H-18.235V-31.821C-19.313-47.577-35.716-47.083-35.642-40.353V0H-63.557V-11.216L-53.836-13.21-53.921-44.348C-53.244-53.49-46.717-59.602-36.888-59.818-30.626-60.164-24.395-57.465-18.195-51.842V-58.573H10.468V-46.11L0-44.116Z" fill="#034089" fill-rule="evenodd"/>
<path transform="matrix(1,0,0,-1,104.6824,4.9851076)" d="M0 0-16.7-3.988V-21.684H-26.42V-35.393H-17.198L-16.7-69.788C-15.383-82.284-4.224-84.352 13.459-79.508V-66.797L7.136-67.481C2.452-68.28 .412-65.734-.042-61.185L0-35.393H13.459V-21.684H0Z" fill="#034089" fill-rule="evenodd"/>
<path transform="matrix(1,0,0,-1,223.3216,71.283008)" d="M0 0C-4.31 .78-6.12 6.704-6.409 13.375-5.691 25.702-.746 31.588 8.149 31.455L13.21 31.404 13.229 16.084C13.025 4.707 7.055-1.686 0 0M30.657 0V71.283H2.492V61.313L13.21 59.319V44.614C-12.008 46.42-26.25 31.455-24.489 7.483-22.525-13.44-8.711-22.582 13.21-7.727V-14.207H41.374V-1.994Z" fill="#034089" fill-rule="evenodd"/>
<path transform="matrix(1,0,0,-1,158.5179,71.283008)" d="M0 0C-3.265-2.589-6.511-2.93-9.727 .035-12.909 3.76-10.337 8.838-5.122 10.463-.027 11.777 3.342 12.63 4.696 9.922 5.712 6.874 3.857 3.366 0 0M22.1 28.746C21.743 43.9 9.565 46.853-6.68 45.607-11.751 44.916-17.3 43.515-23.179 41.623V28.414C-17.752 30.413-12.498 32.044-7.726 32.65 .643 33.783 4.906 30.557 4.764 22.652-14.196 23.329-31.667 13.104-27.416-4.487-21.983-17.842-8.644-19.738 5.733-8.475V-14.207H32.9V-1.994L22.184 0Z" fill="#034089" fill-rule="evenodd"/>
</g>
</g>
</svg>
